<svg width="481" height="185" viewBox="0 0 481 185" fill="none" xmlns="http://www.w3.org/2000/svg">
<path d="M51.3536 4.35355C51.5488 4.15829 51.5488 3.84171 51.3536 3.64645L48.1716 0.464466C47.9763 0.269204 47.6597 0.269204 47.4645 0.464466C47.2692 0.659728 47.2692 0.976311 47.4645 1.17157L50.2929 4L47.4645 6.82843C47.2692 7.02369 47.2692 7.34027 47.4645 7.53553C47.6597 7.7308 47.9763 7.7308 48.1716 7.53553L51.3536 4.35355ZM0 4.5H51V3.5H0V4.5Z" fill="white"/>
<path d="M51.3536 181.354C51.5488 181.158 51.5488 180.842 51.3536 180.646L48.1716 177.464C47.9763 177.269 47.6597 177.269 47.4645 177.464C47.2692 177.66 47.2692 177.976 47.4645 178.172L50.2929 181L47.4645 183.828C47.2692 184.024 47.2692 184.34 47.4645 184.536C47.6597 184.731 47.9763 184.731 48.1716 184.536L51.3536 181.354ZM0 181.5H51V180.5H0V181.5Z" fill="white"/>
<path d="M51.3536 94.3536C51.5488 94.1583 51.5488 93.8417 51.3536 93.6464L48.1716 90.4645C47.9763 90.2692 47.6597 90.2692 47.4645 90.4645C47.2692 90.6597 47.2692 90.9763 47.4645 91.1716L50.2929 94L47.4645 96.8284C47.2692 97.0237 47.2692 97.3403 47.4645 97.5355C47.6597 97.7308 47.9763 97.7308 48.1716 97.5355L51.3536 94.3536ZM0 94.5H51V93.5H0V94.5Z" fill="white"/>
<path d="M349.295 91.0859C349.491 90.8906 349.491 90.574 349.295 90.3787L346.113 87.1968C345.918 87.0015 345.601 87.0015 345.406 87.1968C345.211 87.392 345.211 87.7086 345.406 87.9039L348.235 90.7323L345.406 93.5607C345.211 93.756 345.211 94.0726 345.406 94.2678C345.601 94.4631 345.918 94.4631 346.113 94.2678L349.295 91.0859ZM299.636 91.2323H348.942V90.2323H299.636V91.2323Z" fill="white"/>
<path d="M480.651 91.0859C480.846 90.8906 480.846 90.574 480.651 90.3787L477.469 87.1968C477.274 87.0015 476.957 87.0015 476.762 87.1968C476.567 87.392 476.567 87.7086 476.762 87.9039L479.59 90.7323L476.762 93.5607C476.567 93.756 476.567 94.0726 476.762 94.2678C476.957 94.4631 477.274 94.4631 477.469 94.2678L480.651 91.0859ZM430.992 91.2323H480.298V90.2323H430.992V91.2323Z" fill="white"/>
<path d="M217.197 87.0878C217.377 87.0328 217.434 86.725 217.325 86.4004L215.553 81.1105C215.444 80.7859 215.21 80.5673 215.031 80.6223C214.851 80.6774 214.794 80.9851 214.902 81.3097L216.478 86.0118L213.875 86.8086C213.696 86.8636 213.638 87.1714 213.747 87.496C213.856 87.8206 214.089 88.0391 214.269 87.9841L217.197 87.0878ZM131.068 6.74593L216.909 86.986L217.091 86.014L131.25 5.77385L131.068 6.74593Z" fill="white"/>
<path d="M216.836 104.349C216.949 104.026 216.897 103.713 216.719 103.651L213.825 102.639C213.648 102.577 213.412 102.789 213.299 103.112C213.186 103.435 213.239 103.747 213.416 103.809L215.989 104.709L214.352 109.388C214.239 109.711 214.292 110.023 214.469 110.085C214.647 110.147 214.882 109.936 214.995 109.613L216.836 104.349ZM131.242 181.383L216.597 104.729L216.432 103.743L131.076 180.397L131.242 181.383Z" fill="white"/>
<path d="M217.354 96.3536C217.549 96.1583 217.549 95.8417 217.354 95.6464L214.172 92.4645C213.976 92.2692 213.66 92.2692 213.464 92.4645C213.269 92.6597 213.269 92.9763 213.464 93.1716L216.293 96L213.464 98.8284C213.269 99.0237 213.269 99.3403 213.464 99.5355C213.66 99.7308 213.976 99.7308 214.172 99.5355L217.354 96.3536ZM131 96.5H217V95.5H131V96.5Z" fill="white"/>
</svg>
