<svg width="664" height="664" viewBox="0 0 664 664" fill="none" xmlns="http://www.w3.org/2000/svg">
<g clip-path="url(#clip0_59_3)">
<rect width="664" height="664" fill="#101010"/>
<path d="M363.365 0V664" stroke="#C1BBBF" stroke-width="0.2" stroke-linecap="square"/>
<path d="M389.465 0V664" stroke="#C1BBBF" stroke-width="0.2" stroke-linecap="square"/>
<path d="M415.566 0V664" stroke="#C1BBBF" stroke-width="0.2" stroke-linecap="square"/>
<path d="M441.666 0V664" stroke="#C1BBBF" stroke-width="0.2" stroke-linecap="square"/>
<path d="M467.767 0V664" stroke="#C1BBBF" stroke-width="0.2" stroke-linecap="square"/>
<path d="M493.868 0V664" stroke="#C1BBBF" stroke-width="0.2" stroke-linecap="square"/>
<path d="M519.968 0V664" stroke="#C1BBBF" stroke-width="0.2" stroke-linecap="square"/>
<path d="M546.069 0V664" stroke="#C1BBBF" stroke-width="0.2" stroke-linecap="square"/>
<path d="M572.169 0V664" stroke="#C1BBBF" stroke-width="0.2" stroke-linecap="square"/>
<path d="M598.27 0V664" stroke="#C1BBBF" stroke-width="0.2" stroke-linecap="square"/>
<path d="M624.371 0V664" stroke="#C1BBBF" stroke-width="0.2" stroke-linecap="square"/>
<path d="M650.741 0V664" stroke="#C1BBBF" stroke-width="0.2" stroke-linecap="square"/>
<path d="M24.0566 0V664" stroke="#C1BBBF" stroke-width="0.2" stroke-linecap="square"/>
<path d="M50.1573 0V664" stroke="#C1BBBF" stroke-width="0.2" stroke-linecap="square"/>
<path d="M76.2579 0V664" stroke="#C1BBBF" stroke-width="0.2" stroke-linecap="square"/>
<path d="M102.358 0V664" stroke="#C1BBBF" stroke-width="0.2" stroke-linecap="square"/>
<path d="M128.459 0V664" stroke="#C1BBBF" stroke-width="0.2" stroke-linecap="square"/>
<path d="M154.56 0V664" stroke="#C1BBBF" stroke-width="0.2" stroke-linecap="square"/>
<path d="M180.66 0V664" stroke="#C1BBBF" stroke-width="0.2" stroke-linecap="square"/>
<path d="M206.761 0V664" stroke="#C1BBBF" stroke-width="0.2" stroke-linecap="square"/>
<path d="M232.862 0V664" stroke="#C1BBBF" stroke-width="0.2" stroke-linecap="square"/>
<path d="M258.962 0V664" stroke="#C1BBBF" stroke-width="0.2" stroke-linecap="square"/>
<path d="M285.063 0V664" stroke="#C1BBBF" stroke-width="0.2" stroke-linecap="square"/>
<path d="M311.163 0V664" stroke="#C1BBBF" stroke-width="0.2" stroke-linecap="square"/>
<path d="M664.044 365.408L-0.999788 365.408" stroke="#C1BBBF" stroke-width="0.2" stroke-linecap="square"/>
<path d="M664.044 391.509L-0.999788 391.509" stroke="#C1BBBF" stroke-width="0.2" stroke-linecap="square"/>
<path d="M664.044 417.61L-0.999788 417.61" stroke="#C1BBBF" stroke-width="0.2" stroke-linecap="square"/>
<path d="M664.044 443.71L-0.999788 443.71" stroke="#C1BBBF" stroke-width="0.2" stroke-linecap="square"/>
<path d="M664.044 469.811L-0.999788 469.811" stroke="#C1BBBF" stroke-width="0.2" stroke-linecap="square"/>
<path d="M664.044 495.912L-0.999788 495.912" stroke="#C1BBBF" stroke-width="0.2" stroke-linecap="square"/>
<path d="M664.044 522.012L0.0438187 522.012" stroke="#C1BBBF" stroke-width="0.2" stroke-linecap="square"/>
<path d="M664.044 548.113L0.0438187 548.113" stroke="#C1BBBF" stroke-width="0.2" stroke-linecap="square"/>
<path d="M664.044 574.213L0.0438187 574.213" stroke="#C1BBBF" stroke-width="0.2" stroke-linecap="square"/>
<path d="M664.044 600.314L-0.999788 600.314" stroke="#C1BBBF" stroke-width="0.2" stroke-linecap="square"/>
<path d="M664.044 626.415L-0.999788 626.415" stroke="#C1BBBF" stroke-width="0.2" stroke-linecap="square"/>
<path d="M664.044 652.516L-0.999788 652.516" stroke="#C1BBBF" stroke-width="0.2" stroke-linecap="square"/>
<path d="M664.044 26.1006L-0.999788 26.1006" stroke="#C1BBBF" stroke-width="0.2" stroke-linecap="square"/>
<path d="M664.044 52.2012L-0.999788 52.2012" stroke="#C1BBBF" stroke-width="0.2" stroke-linecap="square"/>
<path d="M664.044 78.3018L0.0438187 78.3018" stroke="#C1BBBF" stroke-width="0.2" stroke-linecap="square"/>
<path d="M664.044 104.402L0.0438187 104.402" stroke="#C1BBBF" stroke-width="0.2" stroke-linecap="square"/>
<path d="M664.044 130.503L0.0438187 130.503" stroke="#C1BBBF" stroke-width="0.2" stroke-linecap="square"/>
<path d="M664.044 156.604L-0.999788 156.604" stroke="#C1BBBF" stroke-width="0.2" stroke-linecap="square"/>
<path d="M664.044 182.704L-0.999788 182.704" stroke="#C1BBBF" stroke-width="0.2" stroke-linecap="square"/>
<path d="M664.044 208.805L-0.999788 208.805" stroke="#C1BBBF" stroke-width="0.2" stroke-linecap="square"/>
<path d="M664.044 234.906L-0.999788 234.906" stroke="#C1BBBF" stroke-width="0.2" stroke-linecap="square"/>
<path d="M664.044 261.006L-0.999788 261.006" stroke="#C1BBBF" stroke-width="0.2" stroke-linecap="square"/>
<path d="M664.044 287.107L-0.999788 287.107" stroke="#C1BBBF" stroke-width="0.2" stroke-linecap="square"/>
<path d="M664.044 313.207L0.0438187 313.207" stroke="#C1BBBF" stroke-width="0.2" stroke-linecap="square"/>
<path d="M337.264 0L337.264 664" stroke="#C1BBBF" stroke-linecap="square"/>
<path d="M-1 339.308L664.044 339.308" stroke="#C1BBBF" stroke-linecap="square"/>
</g>
<defs>
<clipPath id="clip0_59_3">
<rect width="664" height="664" fill="white"/>
</clipPath>
</defs>
</svg>
