<svg width="765" height="765" viewBox="0 0 765 765" fill="none" xmlns="http://www.w3.org/2000/svg">
<g filter="url(#filter0_d_8_312)">
<rect x="39" y="39" width="665" height="665" rx="23" fill="#101010"/>
<rect x="39.5" y="39.5" width="664" height="664" rx="22.5" stroke="white" stroke-opacity="0.36"/>
</g>
<path d="M403.069 43V700.931" stroke="#C1BBBF" stroke-width="0.2" stroke-linecap="square"/>
<path d="M428.931 43V700.931" stroke="#C1BBBF" stroke-width="0.2" stroke-linecap="square"/>
<path d="M454.793 43V700.931" stroke="#C1BBBF" stroke-width="0.2" stroke-linecap="square"/>
<path d="M480.655 43V700.931" stroke="#C1BBBF" stroke-width="0.2" stroke-linecap="square"/>
<path d="M506.517 43V700.931" stroke="#C1BBBF" stroke-width="0.2" stroke-linecap="square"/>
<path d="M532.379 43V700.931" stroke="#C1BBBF" stroke-width="0.2" stroke-linecap="square"/>
<path d="M558.241 43V700.931" stroke="#C1BBBF" stroke-width="0.2" stroke-linecap="square"/>
<path d="M584.103 43V700.931" stroke="#C1BBBF" stroke-width="0.2" stroke-linecap="square"/>
<path d="M609.965 43V700.931" stroke="#C1BBBF" stroke-width="0.2" stroke-linecap="square"/>
<path d="M635.827 43V700.931" stroke="#C1BBBF" stroke-width="0.2" stroke-linecap="square"/>
<path d="M661.69 43V700.931" stroke="#C1BBBF" stroke-width="0.2" stroke-linecap="square"/>
<path d="M687.819 43V700.931" stroke="#C1BBBF" stroke-width="0.2" stroke-linecap="square"/>
<path d="M66.8621 43V700.931" stroke="#C1BBBF" stroke-width="0.2" stroke-linecap="square"/>
<path d="M92.7241 43V700.931" stroke="#C1BBBF" stroke-width="0.2" stroke-linecap="square"/>
<path d="M118.586 43V700.931" stroke="#C1BBBF" stroke-width="0.2" stroke-linecap="square"/>
<path d="M144.448 43V700.931" stroke="#C1BBBF" stroke-width="0.2" stroke-linecap="square"/>
<path d="M170.31 43V700.931" stroke="#C1BBBF" stroke-width="0.2" stroke-linecap="square"/>
<path d="M196.172 43V700.931" stroke="#C1BBBF" stroke-width="0.2" stroke-linecap="square"/>
<path d="M222.034 43V700.931" stroke="#C1BBBF" stroke-width="0.2" stroke-linecap="square"/>
<path d="M247.897 43V700.931" stroke="#C1BBBF" stroke-width="0.2" stroke-linecap="square"/>
<path d="M273.759 43V700.931" stroke="#C1BBBF" stroke-width="0.2" stroke-linecap="square"/>
<path d="M299.621 43V700.931" stroke="#C1BBBF" stroke-width="0.2" stroke-linecap="square"/>
<path d="M325.483 43V700.931" stroke="#C1BBBF" stroke-width="0.2" stroke-linecap="square"/>
<path d="M351.345 43V700.931" stroke="#C1BBBF" stroke-width="0.2" stroke-linecap="square"/>
<path d="M701 405.069L42.0346 405.069" stroke="#C1BBBF" stroke-width="0.2" stroke-linecap="square"/>
<path d="M701 430.931L42.0346 430.931" stroke="#C1BBBF" stroke-width="0.2" stroke-linecap="square"/>
<path d="M701 456.793L42.0346 456.793" stroke="#C1BBBF" stroke-width="0.2" stroke-linecap="square"/>
<path d="M701 482.655L42.0346 482.655" stroke="#C1BBBF" stroke-width="0.2" stroke-linecap="square"/>
<path d="M701 508.517L42.0346 508.517" stroke="#C1BBBF" stroke-width="0.2" stroke-linecap="square"/>
<path d="M701 534.379L42.0346 534.379" stroke="#C1BBBF" stroke-width="0.2" stroke-linecap="square"/>
<path d="M701 560.241L43.0687 560.241" stroke="#C1BBBF" stroke-width="0.2" stroke-linecap="square"/>
<path d="M701 586.103L43.0687 586.103" stroke="#C1BBBF" stroke-width="0.2" stroke-linecap="square"/>
<path d="M701 611.965L43.0687 611.965" stroke="#C1BBBF" stroke-width="0.2" stroke-linecap="square"/>
<path d="M701 637.827L42.0346 637.827" stroke="#C1BBBF" stroke-width="0.2" stroke-linecap="square"/>
<path d="M701 663.69L42.0346 663.69" stroke="#C1BBBF" stroke-width="0.2" stroke-linecap="square"/>
<path d="M701 689.552L42.0346 689.552" stroke="#C1BBBF" stroke-width="0.2" stroke-linecap="square"/>
<path d="M701 68.8621L42.0346 68.8621" stroke="#C1BBBF" stroke-width="0.2" stroke-linecap="square"/>
<path d="M701 94.7241L42.0346 94.7241" stroke="#C1BBBF" stroke-width="0.2" stroke-linecap="square"/>
<path d="M701 120.586L43.0687 120.586" stroke="#C1BBBF" stroke-width="0.2" stroke-linecap="square"/>
<path d="M701 146.448L43.0687 146.448" stroke="#C1BBBF" stroke-width="0.2" stroke-linecap="square"/>
<path d="M701 172.31L43.0687 172.31" stroke="#C1BBBF" stroke-width="0.2" stroke-linecap="square"/>
<path d="M701 198.172L42.0346 198.172" stroke="#C1BBBF" stroke-width="0.2" stroke-linecap="square"/>
<path d="M701 224.034L42.0346 224.034" stroke="#C1BBBF" stroke-width="0.2" stroke-linecap="square"/>
<path d="M701 249.896L42.0346 249.896" stroke="#C1BBBF" stroke-width="0.2" stroke-linecap="square"/>
<path d="M701 275.759L42.0346 275.759" stroke="#C1BBBF" stroke-width="0.2" stroke-linecap="square"/>
<path d="M701 301.621L42.0346 301.621" stroke="#C1BBBF" stroke-width="0.2" stroke-linecap="square"/>
<path d="M701 327.483L42.0346 327.483" stroke="#C1BBBF" stroke-width="0.2" stroke-linecap="square"/>
<path d="M701 353.345L43.0687 353.345" stroke="#C1BBBF" stroke-width="0.2" stroke-linecap="square"/>
<path d="M377.207 43L377.207 700.931" stroke="#C1BBBF" stroke-linecap="square"/>
<path d="M42.0344 379.207L701 379.207" stroke="#C1BBBF" stroke-linecap="square"/>
<defs>
<filter id="filter0_d_8_312" x="0" y="0" width="765" height="765" filterUnits="userSpaceOnUse" color-interpolation-filters="sRGB">
<feFlood flood-opacity="0" result="BackgroundImageFix"/>
<feColorMatrix in="SourceAlpha" type="matrix" values="0 0 0 0 0 0 0 0 0 0 0 0 0 0 0 0 0 0 127 0" result="hardAlpha"/>
<feOffset dx="11" dy="11"/>
<feGaussianBlur stdDeviation="25"/>
<feComposite in2="hardAlpha" operator="out"/>
<feColorMatrix type="matrix" values="0 0 0 0 0 0 0 0 0 0 0 0 0 0 0 0 0 0 0.76 0"/>
<feBlend mode="normal" in2="BackgroundImageFix" result="effect1_dropShadow_8_312"/>
<feBlend mode="normal" in="SourceGraphic" in2="effect1_dropShadow_8_312" result="shape"/>
</filter>
</defs>
</svg>
