<svg width="134" height="49" viewBox="0 0 134 49" fill="none" xmlns="http://www.w3.org/2000/svg">
<path d="M80.4922 12.4615C61.4071 27 33.4156 45.3461 5.84823 42.9231L5 47.0769L130.962 48.1154V27.3461L113.573 12.4615C113.573 12.4615 99.5773 -2.07692 80.4922 12.4615Z" fill="url(#paint0_radial_5_56)"/>
<g filter="url(#filter0_f_5_56)">
<path d="M5.84821 42.9231C33.4156 45.3461 61.4071 27 80.4922 12.4615C99.5773 -2.07692 113.573 12.4615 113.573 12.4615L120.359 18.4615" stroke="#F9FF85" stroke-linecap="round"/>
</g>
<path d="M95.7603 21.8077C77.5234 38.7692 55.4695 46.3846 30.8709 43.9615V44.6538V47.0769H130.962L129.265 28.0384C129.265 28.0384 113.997 4.84613 95.7603 21.8077Z" fill="url(#paint1_radial_5_56)"/>
<g filter="url(#filter1_f_5_56)">
<path d="M30.8709 43.9615C55.4695 46.3846 77.5234 38.7692 95.7603 21.8077C113.997 4.84613 129.265 28.0384 129.265 28.0384" stroke="#F9FF85"/>
</g>
<defs>
<filter id="filter0_f_5_56" x="0.348175" y="0.500061" width="125.511" height="48.1402" filterUnits="userSpaceOnUse" color-interpolation-filters="sRGB">
<feFlood flood-opacity="0" result="BackgroundImageFix"/>
<feBlend mode="normal" in="SourceGraphic" in2="BackgroundImageFix" result="shape"/>
<feGaussianBlur stdDeviation="2.5" result="effect1_foregroundBlur_5_56"/>
</filter>
<filter id="filter1_f_5_56" x="26.8219" y="11.1033" width="106.861" height="37.7981" filterUnits="userSpaceOnUse" color-interpolation-filters="sRGB">
<feFlood flood-opacity="0" result="BackgroundImageFix"/>
<feBlend mode="normal" in="SourceGraphic" in2="BackgroundImageFix" result="shape"/>
<feGaussianBlur stdDeviation="2" result="effect1_foregroundBlur_5_56"/>
</filter>
<radialGradient id="paint0_radial_5_56" cx="0" cy="0" r="1" gradientUnits="userSpaceOnUse" gradientTransform="translate(83.0369 10.7307) rotate(75.2299) scale(28.2806 82.7485)">
<stop stop-color="#F7FF62" stop-opacity="0.3"/>
<stop offset="1" stop-opacity="0"/>
</radialGradient>
<radialGradient id="paint1_radial_5_56" cx="0" cy="0" r="1" gradientUnits="userSpaceOnUse" gradientTransform="translate(92.88 19.1387) rotate(74.3397) scale(21.2242 65.4758)">
<stop stop-color="#F7FF62" stop-opacity="0.3"/>
<stop offset="1" stop-opacity="0"/>
</radialGradient>
</defs>
</svg>
