<svg width="139" height="168" viewBox="0 0 139 168" fill="none" xmlns="http://www.w3.org/2000/svg">
<path d="M102.414 148.127C106.591 127.52 122.742 123.622 125.527 148.127" stroke="#727272" stroke-width="0.2" stroke-linecap="round"/>
<path d="M101.806 148.398C106.235 126.729 123.359 122.63 126.311 148.398" stroke="#727272" stroke-width="0.2" stroke-linecap="round"/>
<path d="M101.249 148.398C105.879 126.052 123.781 121.824 126.868 148.398" stroke="#727272" stroke-width="0.2" stroke-linecap="round"/>
<path d="M102.692 148.127C106.718 128.489 122.286 124.774 124.97 148.127" stroke="#727272" stroke-width="0.2" stroke-linecap="round"/>
<path d="M103.249 148.127C107.074 129.167 121.863 125.58 124.413 148.127" stroke="#727272" stroke-width="0.2" stroke-linecap="round"/>
<path d="M103.806 148.127C107.43 129.844 121.44 126.385 123.856 148.127" stroke="#727272" stroke-width="0.2" stroke-linecap="round"/>
<path d="M104.363 148.127C107.785 130.521 121.018 127.19 123.299 148.127" stroke="#727272" stroke-width="0.2" stroke-linecap="round"/>
<path d="M104.92 148.127C108.141 131.198 120.595 127.995 122.742 148.127" stroke="#727272" stroke-width="0.2" stroke-linecap="round"/>
<path d="M105.477 148.127C108.497 131.875 120.172 128.801 122.185 148.127" stroke="#727272" stroke-width="0.2" stroke-linecap="round"/>
<path d="M106.034 148.127C108.852 132.552 119.75 129.606 121.628 148.127" stroke="#727272" stroke-width="0.2" stroke-linecap="round"/>
<path d="M106.591 148.127C109.208 133.23 119.327 130.411 121.071 148.127" stroke="#727272" stroke-width="0.2" stroke-linecap="round"/>
<path d="M107.148 148.127C109.564 133.907 118.904 131.216 120.514 148.127" stroke="#727272" stroke-width="0.2" stroke-linecap="round"/>
<path d="M107.705 148.127C109.919 134.584 118.481 132.022 119.958 148.127" stroke="#727272" stroke-width="0.2" stroke-linecap="round"/>
<path d="M108.262 148.127C110.275 135.261 118.059 132.827 119.401 148.127" stroke="#727272" stroke-width="0.2" stroke-linecap="round"/>
<path d="M108.819 148.127C110.63 135.938 117.636 133.632 118.844 148.127" stroke="#727272" stroke-width="0.2" stroke-linecap="round"/>
<path d="M109.376 148.127C110.986 136.615 117.213 134.437 118.287 148.127" stroke="#727272" stroke-width="0.2" stroke-linecap="round"/>
<path d="M109.933 148.127C111.342 137.292 116.79 135.243 117.73 148.127" stroke="#727272" stroke-width="0.2" stroke-linecap="round"/>
<path d="M110.49 148.127C111.697 137.97 116.368 136.048 117.173 148.127" stroke="#727272" stroke-width="0.2" stroke-linecap="round"/>
<path d="M111.046 148.127C112.053 138.647 115.945 136.853 116.616 148.127" stroke="#727272" stroke-width="0.2" stroke-linecap="round"/>
<path d="M111.603 148.127C112.409 139.324 115.522 137.658 116.059 148.127" stroke="#727272" stroke-width="0.2" stroke-linecap="round"/>
<path d="M112.16 148.127C112.764 140.001 115.099 138.464 115.502 148.127" stroke="#727272" stroke-width="0.2" stroke-linecap="round"/>
<path d="M112.717 148.127C113.12 140.678 114.677 139.269 114.945 148.127" stroke="#727272" stroke-width="0.2" stroke-linecap="round"/>
<path d="M113.274 148.127C113.476 141.355 114.254 140.074 114.388 148.127" stroke="#727272" stroke-width="0.2" stroke-linecap="round"/>
<path d="M126.084 150.355C121.756 163.22 105.021 165.655 102.135 150.355" stroke="#727272" stroke-width="0.2" stroke-linecap="round"/>
<path d="M124.97 150.355C121.045 161.866 105.866 164.044 103.249 150.355" stroke="#727272" stroke-width="0.2" stroke-linecap="round"/>
<path d="M124.413 150.355C120.689 161.189 106.289 163.239 103.806 150.355" stroke="#727272" stroke-width="0.2" stroke-linecap="round"/>
<path d="M124.97 150.355C121.045 161.866 105.866 164.044 103.249 150.355" stroke="#727272" stroke-width="0.2" stroke-linecap="round"/>
<path d="M124.413 150.355C120.689 161.189 106.289 163.239 103.806 150.355" stroke="#727272" stroke-width="0.2" stroke-linecap="round"/>
<path d="M121.071 150.355C118.555 157.126 108.825 158.407 107.148 150.355" stroke="#727272" stroke-width="0.2" stroke-linecap="round"/>
<path d="M118.844 150.355C117.133 154.418 110.516 155.186 109.376 150.355" stroke="#727272" stroke-width="0.2" stroke-linecap="round"/>
<path d="M117.173 150.355C116.066 152.386 111.785 152.77 111.046 150.355" stroke="#727272" stroke-width="0.2" stroke-linecap="round"/>
<path d="M126.641 150.355C122.111 163.898 104.598 166.46 101.579 150.355" stroke="#727272" stroke-width="0.2" stroke-linecap="round"/>
<path d="M124.97 150.355C121.045 161.866 105.866 164.044 103.249 150.355" stroke="#727272" stroke-width="0.2" stroke-linecap="round"/>
<path d="M124.413 150.355C120.689 161.189 106.289 163.239 103.806 150.355" stroke="#727272" stroke-width="0.2" stroke-linecap="round"/>
<path d="M119.401 150.355C117.488 155.095 110.094 155.991 108.819 150.355" stroke="#727272" stroke-width="0.2" stroke-linecap="round"/>
<path d="M117.73 150.355C116.421 153.063 111.362 153.576 110.49 150.355" stroke="#727272" stroke-width="0.2" stroke-linecap="round"/>
<path d="M115.502 150.355C114.898 151.032 112.563 151.16 112.16 150.355" stroke="#727272" stroke-width="0.2" stroke-linecap="round"/>
<path d="M125.527 150.355C121.4 162.543 105.444 164.849 102.692 150.355" stroke="#727272" stroke-width="0.2" stroke-linecap="round"/>
<path d="M124.413 150.355C120.689 161.189 106.289 163.239 103.806 150.355" stroke="#727272" stroke-width="0.2" stroke-linecap="round"/>
<path d="M123.856 150.355C120.333 160.512 106.712 162.434 104.363 150.355" stroke="#727272" stroke-width="0.2" stroke-linecap="round"/>
<path d="M123.299 150.355C119.978 159.835 107.134 161.628 104.92 150.355" stroke="#727272" stroke-width="0.2" stroke-linecap="round"/>
<path d="M122.742 150.355C119.622 159.158 107.557 160.823 105.477 150.355" stroke="#727272" stroke-width="0.2" stroke-linecap="round"/>
<path d="M122.185 150.355C119.266 158.48 107.98 160.018 106.034 150.355" stroke="#727272" stroke-width="0.2" stroke-linecap="round"/>
<path d="M121.628 150.355C118.911 157.803 108.403 159.212 106.591 150.355" stroke="#727272" stroke-width="0.2" stroke-linecap="round"/>
<path d="M120.514 150.355C118.199 156.449 109.248 157.602 107.705 150.355" stroke="#727272" stroke-width="0.2" stroke-linecap="round"/>
<path d="M119.958 150.355C117.844 155.772 109.671 156.797 108.262 150.355" stroke="#727272" stroke-width="0.2" stroke-linecap="round"/>
<path d="M118.287 150.355C116.777 153.74 110.939 154.381 109.933 150.355" stroke="#727272" stroke-width="0.2" stroke-linecap="round"/>
<path d="M116.616 150.355C115.71 151.709 112.207 151.965 111.603 150.355" stroke="#727272" stroke-width="0.2" stroke-linecap="round"/>
<path d="M15.5315 17.8032V143.393L19.4301 148.962H135.83" stroke="#727272" stroke-width="6" stroke-linecap="round"/>
<path d="M13.8605 106.356C5.50642 111.926 -4.05981 117.078 4.11427 132.811L23.6071 158.987C29.795 166.92 31.5281 165.772 37.5304 166.227H63.9852" stroke="#727272" stroke-width="2" stroke-linecap="round"/>
<ellipse cx="18.865" cy="145.276" rx="5.29809" ry="6.38747" transform="rotate(-36.7671 18.865 145.276)" fill="#727272"/>
<ellipse cx="118.844" cy="145.899" rx="5.01245" ry="5.56939" fill="url(#paint0_radial_8_6)"/>
<path d="M17.3159 2.32281C13.2319 6.54502 12.5 16.6077 12.5 18L16.2021 17.0817C16.2021 17.0817 18.5081 14.8426 25.3916 9.56301C32.275 4.2834 21.4 -1.89939 17.3159 2.32281Z" fill="#727272"/>
<defs>
<radialGradient id="paint0_radial_8_6" cx="0" cy="0" r="1" gradientUnits="userSpaceOnUse" gradientTransform="translate(118.844 145.899) rotate(90) scale(5.56939 5.01245)">
<stop offset="0.521" stop-color="#DADADA"/>
<stop offset="1" stop-color="#979797" stop-opacity="0"/>
</radialGradient>
</defs>
</svg>
